# Blender v2.79 (sub 0) OBJ File: ''
# www.blender.org
mtllib frame_lower_left.mtl
o frame_lower_left
v -0.013603 -0.001242 0.013603
v -0.021255 -0.001242 0.013603
v -0.021255 -0.000000 0.013603
v -0.013603 -0.000000 0.013603
v -0.001701 -0.006314 0.001701
v -0.033156 -0.006314 0.001701
v -0.032527 -0.005414 0.002330
v -0.002330 -0.005414 0.002330
v 0.000000 -0.006314 -0.000000
v 0.000000 0.000000 0.000000
v -0.034857 0.000000 0.000000
v -0.034857 -0.006314 -0.000000
v -0.010210 -0.001507 0.010210
v -0.009893 -0.002027 0.009893
v -0.024964 -0.002027 0.009893
v -0.024648 -0.001507 0.010210
v 0.000000 -0.006314 0.034857
v 0.000000 -0.000000 0.034857
v -0.001701 -0.006314 0.033156
v -0.002330 -0.005414 0.032527
v -0.010210 -0.001507 0.024648
v -0.009893 -0.002027 0.024964
v -0.013603 -0.000000 0.021255
v -0.013603 -0.001242 0.021255
v -0.012459 -0.001507 0.022399
v -0.012882 -0.001242 0.021975
v -0.009893 -0.000000 0.024964
v -0.011334 -0.001736 0.023523
v -0.006308 -0.000000 0.028549
v -0.007902 -0.002184 0.026955
v -0.007295 -0.002615 0.027563
v -0.006801 -0.003203 0.028056
v -0.006297 -0.004163 0.028560
v -0.005512 -0.004925 0.029345
v -0.004523 -0.005414 0.030334
v -0.028548 -0.000000 0.006308
v -0.030334 -0.005414 0.004523
v -0.029345 -0.004925 0.005512
v -0.028560 -0.004163 0.006297
v -0.028056 -0.003203 0.006801
v -0.027563 -0.002615 0.007295
v -0.026955 -0.002184 0.007902
v -0.024964 -0.000000 0.009893
v -0.023523 -0.001736 0.011334
v -0.022398 -0.001507 0.012459
v -0.021975 -0.001242 0.012882
v -0.006297 -0.004163 0.006297
v -0.006801 -0.003203 0.006801
v -0.005512 -0.004925 0.005512
v -0.004523 -0.005414 0.004523
v -0.012459 -0.001507 0.012459
v -0.012882 -0.001242 0.012882
v -0.011334 -0.001736 0.011334
v -0.007295 -0.002615 0.007295
v -0.007902 -0.002184 0.007902
vt 0.250384 0.224766
vt 0.250384 0.237088
vt 0.326272 0.237088
vt 0.326272 0.224766
vt 0.132344 0.100107
vt 0.138579 0.109030
vt 0.438077 0.109030
vt 0.444312 0.100107
vt 0.115474 0.083237
vt 0.461182 0.083237
vt 0.461182 0.020617
vt 0.115474 0.020617
vt 0.216732 0.192688
vt 0.359924 0.192688
vt 0.363063 0.187527
vt 0.213593 0.187527
vt 0.080945 0.458889
vt 0.080946 0.113180
vt 0.018325 0.113180
vt 0.018325 0.458889
vt 0.097815 0.130050
vt 0.097815 0.442019
vt 0.106738 0.136285
vt 0.106738 0.435784
vt 0.190396 0.357632
vt 0.190396 0.214438
vt 0.185235 0.211300
vt 0.185235 0.360770
vt 0.234795 0.323980
vt 0.234796 0.248091
vt 0.222474 0.248091
vt 0.222473 0.323980
vt 0.247360 0.337045
vt 0.264576 0.323980
vt 0.250383 0.332209
vt 0.244751 0.349895
vt 0.264576 0.366359
vt 0.247360 0.362743
vt 0.241415 0.366359
vt 0.264576 0.407313
vt 0.239625 0.389107
vt 0.234701 0.396049
vt 0.227987 0.401681
vt 0.217017 0.407440
vt 0.208312 0.416409
vt 0.202723 0.427711
vt 0.202722 0.452768
vt 0.264577 0.479383
vt 0.192444 0.459951
vt 0.192444 0.479383
vt 0.250383 0.323980
vt 0.481675 0.270537
vt 0.481675 0.198405
vt 0.462243 0.198405
vt 0.455060 0.208683
vt 0.409606 0.270537
vt 0.430004 0.208683
vt 0.418702 0.214272
vt 0.409733 0.222978
vt 0.403974 0.233947
vt 0.398342 0.240662
vt 0.391400 0.245586
vt 0.368652 0.247375
vt 0.368652 0.270537
vt 0.365036 0.253321
vt 0.352188 0.250711
vt 0.326272 0.270537
vt 0.339339 0.253321
vt 0.334503 0.256343
vt 0.326272 0.256343
vt 0.145859 0.175636
vt 0.145859 0.396434
vt 0.155382 0.391434
vt 0.155382 0.180635
vt 0.138302 0.167849
vt 0.138302 0.404220
vt 0.128490 0.158038
vt 0.128490 0.414032
vt 0.212705 0.236748
vt 0.212705 0.335323
vt 0.215329 0.331125
vt 0.215329 0.240946
vt 0.201550 0.225593
vt 0.201550 0.346477
vt 0.177930 0.148151
vt 0.182929 0.157674
vt 0.393727 0.157675
vt 0.398727 0.148152
vt 0.170143 0.140594
vt 0.406513 0.140594
vt 0.160332 0.130782
vt 0.416325 0.130783
vt 0.187818 0.163503
vt 0.193844 0.167778
vt 0.382812 0.167778
vt 0.388838 0.163504
vt 0.239040 0.214997
vt 0.243239 0.217621
vt 0.333417 0.217621
vt 0.337616 0.214997
vt 0.348770 0.203843
vt 0.227886 0.203842
vt 0.161211 0.185524
vt 0.161211 0.386545
vt 0.165485 0.380519
vt 0.165486 0.191551
vn 0.0000 0.0000 1.0000
vn 0.0000 -0.5730 0.8195
vn 0.0000 0.0000 -1.0000
vn 0.0000 -0.5199 0.8542
vn 0.0000 -1.0000 0.0000
vn 1.0000 0.0000 0.0000
vn -0.8197 -0.5728 -0.0004
vn -0.8194 -0.5732 0.0004
vn -0.8194 -0.5732 -0.0004
vn -0.8197 -0.5728 0.0004
vn -0.8544 -0.5197 0.0004
vn -0.8544 -0.5197 -0.0004
vn -0.8541 -0.5201 0.0004
vn -0.8541 -0.5201 -0.0004
vn -1.0000 0.0000 0.0000
vn -0.7071 0.0000 0.7071
vn -0.7069 -0.0002 0.7074
vn -0.7073 0.0000 0.7070
vn -0.7070 -0.0000 0.7073
vn -0.7073 -0.0002 0.7069
vn -0.7071 0.0001 0.7071
vn -0.7068 -0.0000 0.7074
vn -0.7074 -0.0001 0.7068
vn -0.7078 -0.0001 0.7064
vn -0.7078 0.0002 0.7064
vn -0.7072 0.0001 0.7070
vn -0.7072 0.0001 0.7071
vn -0.7069 -0.0007 0.7073
vn -0.7074 -0.0004 0.7068
vn -0.7067 0.0002 0.7075
vn -0.7072 0.0004 0.7070
vn -0.7076 -0.0002 0.7066
vn -0.7087 0.0021 0.7055
vn -0.7083 0.0024 0.7059
vn -0.7710 -0.6368 0.0040
vn -0.7710 -0.6368 -0.0041
vn -0.8450 -0.5346 0.0149
vn -0.8450 -0.5346 -0.0149
vn -0.5232 -0.8522 0.0050
vn -0.5232 -0.8522 -0.0050
vn -0.1199 -0.9911 0.0575
vn -0.1199 -0.9911 -0.0575
vn -0.2955 -0.9539 0.0531
vn -0.2955 -0.9539 -0.0531
vn -0.5299 -0.8481 0.0004
vn -0.5299 -0.8481 -0.0004
vn 0.1000 -0.9949 0.0132
vn 0.1000 -0.9949 -0.0132
vn 0.1994 -0.9799 -0.0000
vn -0.0041 -0.6368 0.7710
vn 0.0149 -0.5346 0.8450
vn -0.0149 -0.5347 0.8449
vn 0.0041 -0.6368 0.7710
vn -0.0050 -0.8522 0.5232
vn 0.0050 -0.8522 0.5232
vn -0.0575 -0.9911 0.1199
vn 0.0575 -0.9911 0.1199
vn 0.0045 -0.6993 0.7149
vn -0.1036 -0.8794 0.4647
vn 0.1036 -0.8794 0.4647
vn -0.0045 -0.6993 0.7149
vn 0.0000 -0.9969 0.0786
vn -0.0531 -0.9539 0.2955
vn 0.0003 -0.8481 0.5298
vn -0.0003 -0.8481 0.5298
vn 0.0531 -0.9539 0.2955
vn 0.0131 -0.9949 -0.1000
vn -0.0132 -0.9949 -0.1000
vn 0.0000 -0.9799 -0.1994
vn -0.7149 -0.6993 -0.0045
vn -0.7149 -0.6993 0.0045
vn -0.4647 -0.8794 -0.1036
vn -0.4647 -0.8794 0.1036
vn -0.0786 -0.9969 -0.0000
g frame_lower_left_frame_lower_left_None
usemtl None
s off
f 1/1/1 4/2/1 3/3/1 2/4/1
f 5/5/2 8/6/2 7/7/2 6/8/2
f 9/9/3 12/10/3 11/11/3 10/12/3
f 13/13/4 16/14/4 15/15/4 14/16/4
f 6/8/5 12/10/5 9/9/5 5/5/5
f 17/17/6 9/18/6 10/19/6 18/20/6
f 5/21/5 9/18/5 17/17/5 19/22/5
f 8/23/7 5/21/8 19/22/9 20/24/10
f 21/25/11 13/26/12 14/27/13 22/28/14
f 23/29/15 4/30/15 1/31/15 24/32/15
f 25/33/16 23/34/16 26/35/16
f 23/34/16 25/33/16 28/36/16 27/37/16
f 27/37/16 28/36/16 21/38/16
f 22/39/16 27/37/16 21/38/16
f 29/40/16 27/37/16 22/39/16 30/41/16
f 31/42/16 29/40/16 30/41/16
f 32/43/16 29/40/16 31/42/16
f 33/44/16 29/40/16 32/43/16
f 34/45/16 29/40/16 33/44/16
f 35/46/16 29/40/16 34/45/16
f 29/40/16 35/46/16 20/47/16 18/48/16
f 19/49/17 18/48/17 20/47/17
f 18/48/18 19/49/18 17/50/18
f 23/34/16 24/51/16 26/35/16
f 11/52/19 12/53/19 6/54/19
f 7/55/20 11/52/20 6/54/20
f 36/56/16 11/52/16 7/55/16 37/57/16
f 38/58/21 36/56/21 37/57/21
f 39/59/22 36/56/22 38/58/22
f 40/60/23 36/56/24 39/59/25
f 41/61/26 36/56/26 40/60/26
f 42/62/27 36/56/27 41/61/27
f 36/56/27 42/62/27 15/63/27 43/64/27
f 16/65/16 43/64/16 15/63/16
f 43/64/16 16/65/16 44/66/16
f 3/67/28 43/64/29 44/66/30 45/68/31
f 46/69/32 3/67/33 45/68/34
f 46/69/16 2/70/16 3/67/16
s 1
f 47/71/35 33/72/36 32/73/37 48/74/38
f 49/75/39 34/76/40 33/72/36 47/71/35
f 50/77/41 35/78/42 34/76/40 49/75/39
f 50/77/41 8/23/5 20/24/5 35/78/42
f 51/79/43 25/80/44 26/81/45 52/82/46
f 51/79/43 53/83/47 28/84/48 25/80/44
f 53/83/47 13/26/49 21/25/49 28/84/48
f 47/85/50 48/86/51 40/87/52 39/88/53
f 49/89/54 47/85/50 39/88/53 38/90/55
f 50/91/56 49/89/54 38/90/55 37/92/57
f 37/92/57 7/7/5 8/6/5 50/91/56
f 54/93/58 55/94/59 42/95/60 41/96/61
f 14/16/62 15/15/62 42/95/60 55/94/59
f 51/97/63 52/98/64 46/99/65 45/100/66
f 45/100/66 44/101/67 53/102/68 51/97/63
f 44/101/67 16/14/69 13/13/69 53/102/68
f 54/93/58 41/96/61 40/87/52 48/86/51
f 1/1/5 2/4/5 46/99/5 52/98/5
f 54/103/70 48/74/38 32/73/37 31/104/71
f 30/105/72 55/106/73 54/103/70 31/104/71
f 14/27/74 55/106/73 30/105/72 22/28/74
f 1/31/5 52/82/5 26/81/5 24/32/5
o Cube.001
v 0.014748 0.014748 -0.014748
v 0.014748 -0.014748 -0.014748
v 0.014748 -0.014748 0.014748
v 0.014748 0.014748 0.014748
v -0.014748 -0.014748 0.014748
v -0.014748 0.014748 0.014748
v -0.014748 -0.014748 -0.014748
v -0.014748 0.014748 -0.014748
vt 0.000000 0.000000
vt 0.000000 1.000000
vt 1.000000 1.000000
vt 1.000000 0.000000
vt 0.000000 0.000000
vt 0.000000 1.000000
vt 1.000000 1.000000
vt 1.000000 0.000000
vt 0.000000 0.000000
vt 0.000000 1.000000
vt 1.000000 1.000000
vt 1.000000 0.000000
vt 0.000000 0.000000
vt 0.000000 1.000000
vt 1.000000 1.000000
vt 1.000000 0.000000
vt 1.000000 1.000000
vt 1.000000 0.000000
vt 0.000000 0.000000
vt 0.000000 1.000000
vn 1.0000 0.0000 0.0000
vn 0.0000 -0.0000 1.0000
vn -1.0000 0.0000 0.0000
vn 0.0000 0.0000 -1.0000
vn 0.0000 1.0000 0.0000
vn 0.0000 -1.0000 -0.0000
g Cube.001_Cube.001_None
usemtl None
s off
f 56/107/75 59/108/75 58/109/75 57/110/75
f 59/111/76 61/112/76 60/113/76 58/114/76
f 61/115/77 63/116/77 62/117/77 60/118/77
f 63/119/78 56/120/78 57/121/78 62/122/78
f 59/111/79 56/120/79 63/123/79 61/124/79
f 60/125/80 62/126/80 57/121/80 58/114/80
